<svg width="2465" height="889" viewBox="0 0 2465 889" fill="none" xmlns="http://www.w3.org/2000/svg">
<path fill-rule="evenodd" clip-rule="evenodd" d="M700 422C700 563.385 585.385 678 444 678C302.615 678 188 563.385 188 422C188 280.615 302.615 166 444 166C585.385 166 700 280.615 700 422ZM443.45 265.828C451.575 265.348 456.31 260.324 456.286 251.213H456.31C455.589 243.401 451.19 238.065 442.825 238.113C434.003 238.161 428.523 243.738 428.643 252.415C428.787 261.237 434.652 266.357 443.45 265.828ZM387.226 289.722C386.24 297.822 382.25 303.135 373.476 303.255C364.246 303.399 358.91 298.231 358.886 289.337C358.886 281.116 363.982 275.684 372.419 275.419C381.577 275.131 386.024 280.9 387.226 289.698V289.722ZM467.175 328.038C467.535 314.673 456.574 303.543 443.113 303.543C429.508 303.543 420.326 313.278 420.566 327.413C420.806 340.345 430.421 349.888 443.45 350.152C456.093 350.416 466.838 340.369 467.175 328.038ZM371.169 504.569C383.74 502.262 391.024 492.022 390.759 476.325H390.711C388.788 470.124 391.937 465.677 397.442 461.879C404.028 457.336 410.614 452.672 416.528 447.312C422.297 442.072 427.561 440.678 434.7 444.74C440.084 447.817 446.863 448.033 452.103 444.836C461.237 439.235 467.752 442.793 474.386 448.922C477.607 451.903 481.165 454.571 484.866 456.951C493.52 462.528 498.688 469.258 497.678 480.58C496.813 490.075 502.005 497.647 510.683 501.829C520.947 506.757 531.067 506.084 539.768 498.272C548.037 490.844 550.585 481.349 546.21 471.013C541.763 460.508 533.518 455.172 521.692 455.028C519.491 455.003 517.278 455.584 515.072 456.163C510.99 457.236 506.931 458.302 503.015 455.509C492.607 448.081 482.318 440.413 472.415 432.312C466.382 427.385 465.757 420.101 471.982 415.775C475.808 413.114 479.37 409.969 482.935 406.823C493.64 397.374 504.363 387.908 522.269 391.497C535.826 394.213 548.47 380.752 548.47 367.724C548.47 353.83 537.533 342.676 523.423 342.172C508.495 341.643 496.645 350.993 497.462 365.608C498.135 377.651 492.991 384.165 484.145 390.03C479.506 393.131 475.131 396.713 470.997 400.487C465.925 405.126 461.334 406.232 455.012 402.145C448.209 397.746 440.229 398.059 433.162 401.809C426.744 405.222 421.912 403.876 416.84 399.501C412.297 395.583 407.562 391.809 402.538 388.564C394.341 383.252 389.846 377.242 390.399 366.281C391.072 353.133 380.688 343.47 368.164 342.364C354.631 341.162 343.55 348.806 340.16 361.666C335.329 380.031 351.915 395.343 372.371 391.376C373.512 391.16 374.649 390.763 375.787 390.366C378.82 389.307 381.855 388.247 384.966 390.607C387.157 392.262 389.36 393.905 391.564 395.548C399.635 401.566 407.714 407.59 415.23 414.236C422.2 420.39 421.479 427.841 414.316 433.875C409.905 437.592 405.358 441.15 400.808 444.709L400.808 444.709L400.807 444.71L400.806 444.711L400.805 444.711L400.805 444.712C397.472 447.319 394.138 449.927 390.855 452.6C385.639 456.879 380.664 459.186 373.404 456.446C366.145 453.706 358.405 454.643 351.554 459.186C341.194 466.061 337.083 478.537 341.554 489.666C346.146 501.084 357.924 507.021 371.169 504.569ZM609.501 420.101C609.285 432.505 598.396 442.673 585.8 442.168C573.205 441.663 564.383 431.976 564.863 419.14C565.296 406.881 575.44 397.29 587.579 397.602C599.742 397.915 609.718 408.131 609.501 420.101ZM299.705 441.855C311.7 441.567 321.555 431.231 321.291 419.236H321.315C321.026 406.905 310.859 397.121 298.912 397.674C287.158 398.227 276.749 408.972 276.942 420.39C277.134 432.312 287.59 442.144 299.705 441.855ZM443.258 604.878C451.575 604.71 456.142 599.422 456.791 591.081C455.901 582.283 451.575 576.322 442.44 576.61C434.171 576.874 428.979 582.355 428.979 590.6C428.955 599.446 434.292 605.046 443.258 604.878ZM386.937 554.567L386.937 554.586C385.637 546.031 381.359 540.073 372.226 540.65C364.006 541.154 359.102 546.827 359.15 554.928C359.198 563.894 365.039 568.918 373.789 568.557C381.98 568.197 386.522 562.988 386.937 554.586L386.937 554.591V554.567ZM497.654 554.471C498.856 546.034 503.423 540.145 512.245 540.265C521.307 540.385 525.778 546.611 525.394 555.361C525.009 564.327 519.336 569.423 510.611 568.99C502.342 568.581 498.159 562.909 497.654 554.471ZM525.97 289.615L525.971 289.601V289.626L525.97 289.615ZM511.716 275.323C520.847 275.251 525.126 280.967 525.97 289.615C525.269 298.236 520.462 302.774 512.101 302.942C502.823 303.111 498.015 297.462 498.039 288.76C498.087 280.419 503.327 275.395 511.716 275.323ZM316.844 320.418C316.507 330.009 311.556 334.744 303.311 335.008C294.994 335.273 289.345 330.561 289.056 322.076C288.744 313.038 294.369 307.606 303.118 307.485C311.483 307.365 315.81 313.086 316.844 320.418ZM583.997 334.215C592.411 334.167 597.05 329.504 597.867 320.658L597.891 320.682C597.29 312.87 593.564 307.029 584.959 306.957C576.185 306.86 570.536 312.029 570.488 320.922C570.44 329.239 575.416 334.263 583.997 334.215ZM316.796 523.247C316.363 532.092 311.772 537.333 303.455 537.573C295.234 537.813 289.369 533.078 289.393 524.521C289.417 516.468 294.008 510.771 302.686 510.483C311.315 510.194 315.762 515.17 316.772 523.271L316.796 523.247ZM584.676 510.531L584.671 510.531H584.695L584.676 510.531ZM584.676 510.531C592.846 511.422 597.723 515.917 597.603 524.376C597.459 532.886 592.17 537.885 584.046 537.741C575.392 537.597 569.863 532.165 570.248 523.223C570.608 514.791 576.201 510.825 584.676 510.531ZM441.671 542.837C454.267 543.342 465.156 533.174 465.372 520.771C465.589 508.8 455.613 498.584 443.45 498.272C431.311 497.959 421.167 507.55 420.734 519.809C420.254 532.645 429.076 542.332 441.671 542.837Z" fill="black"/>
<path d="M885.601 264.944H983.778C997.803 264.944 1011.28 266.319 1024.2 269.069C1037.4 271.82 1048.95 276.495 1058.85 283.095C1068.75 289.42 1076.59 298.083 1082.37 309.083C1088.42 319.808 1091.44 333.283 1091.44 349.509C1091.44 367.934 1088.28 382.784 1081.95 394.059C1075.63 405.335 1067.1 414.135 1056.38 420.46C1045.65 426.51 1033.14 430.635 1018.84 432.835C1004.82 435.035 990.103 436.135 974.703 436.135H937.577V557H885.601V264.944ZM968.927 391.584C976.353 391.584 984.053 391.309 992.028 390.759C1000 390.209 1007.29 388.559 1013.89 385.809C1020.77 383.059 1026.27 378.934 1030.39 373.434C1034.79 367.934 1036.99 360.234 1036.99 350.334C1036.99 341.258 1035.07 334.108 1031.22 328.883C1027.37 323.383 1022.42 319.258 1016.37 316.508C1010.32 313.483 1003.58 311.558 996.153 310.733C988.728 309.908 981.578 309.495 974.703 309.495H937.577V391.584H968.927ZM1240.49 529.774H1239.26C1232.11 541.05 1223.03 549.3 1212.03 554.525C1201.03 559.475 1188.93 561.95 1175.73 561.95C1166.65 561.95 1157.72 560.713 1148.92 558.238C1140.39 555.762 1132.69 552.05 1125.82 547.1C1119.22 542.15 1113.85 535.962 1109.73 528.537C1105.6 521.112 1103.54 512.449 1103.54 502.549C1103.54 491.824 1105.47 482.749 1109.32 475.323C1113.17 467.623 1118.25 461.298 1124.58 456.348C1131.18 451.123 1138.74 446.998 1147.27 443.973C1155.79 440.948 1164.59 438.748 1173.67 437.373C1183.02 435.723 1192.37 434.76 1201.72 434.485C1211.07 433.935 1219.87 433.66 1228.12 433.66H1240.49V428.298C1240.49 415.922 1236.23 406.71 1227.71 400.66C1219.18 394.334 1208.32 391.172 1195.12 391.172C1184.67 391.172 1174.9 393.097 1165.83 396.947C1156.75 400.522 1148.92 405.472 1142.32 411.797L1116.33 385.809C1127.33 374.534 1140.12 366.421 1154.69 361.471C1169.54 356.521 1184.8 354.046 1200.48 354.046C1214.5 354.046 1226.33 355.696 1235.96 358.996C1245.58 362.021 1253.56 366.009 1259.88 370.959C1266.21 375.909 1271.02 381.684 1274.32 388.284C1277.89 394.609 1280.37 401.072 1281.74 407.672C1283.39 414.272 1284.36 420.735 1284.63 427.06C1284.91 433.11 1285.04 438.473 1285.04 443.148V557H1240.49V529.774ZM1237.61 468.311H1227.29C1220.42 468.311 1212.72 468.586 1204.19 469.136C1195.67 469.686 1187.55 471.061 1179.85 473.261C1172.43 475.186 1166.1 478.211 1160.88 482.336C1155.65 486.186 1153.04 491.686 1153.04 498.836C1153.04 503.511 1154 507.499 1155.93 510.799C1158.13 513.824 1160.88 516.437 1164.18 518.637C1167.48 520.837 1171.19 522.487 1175.32 523.587C1179.44 524.412 1183.57 524.824 1187.69 524.824C1204.74 524.824 1217.26 520.837 1225.23 512.862C1233.48 504.611 1237.61 493.474 1237.61 479.449V468.311ZM1313.55 358.996H1363.05V390.347H1363.88C1369.38 378.797 1377.22 369.859 1387.39 363.534C1397.57 357.209 1409.25 354.046 1422.45 354.046C1425.48 354.046 1428.37 354.321 1431.12 354.871C1434.14 355.421 1437.17 356.109 1440.19 356.934V404.785C1436.07 403.685 1431.94 402.86 1427.82 402.31C1423.97 401.485 1420.12 401.072 1416.27 401.072C1404.72 401.072 1395.37 403.272 1388.22 407.672C1381.34 411.797 1375.98 416.61 1372.13 422.11C1368.55 427.61 1366.08 433.11 1364.7 438.61C1363.6 444.11 1363.05 448.235 1363.05 450.985V557H1313.55V358.996ZM1450.78 401.072V358.996H1491.62V301.658H1541.12V358.996H1595.57V401.072H1541.12V487.699C1541.12 497.599 1542.91 505.437 1546.48 511.212C1550.33 516.987 1557.76 519.874 1568.76 519.874C1573.16 519.874 1577.97 519.462 1583.2 518.637C1588.42 517.537 1592.55 515.887 1595.57 513.687V555.35C1590.35 557.825 1583.88 559.475 1576.18 560.3C1568.76 561.4 1562.16 561.95 1556.38 561.95C1543.18 561.95 1532.32 560.438 1523.8 557.413C1515.55 554.662 1508.95 550.4 1504 544.625C1499.32 538.575 1496.02 531.15 1494.1 522.349C1492.45 513.549 1491.62 503.374 1491.62 491.824V401.072H1450.78ZM1623.07 358.996H1672.57V557H1623.07V358.996ZM1616.05 291.757C1616.05 283.782 1618.94 276.907 1624.72 271.132C1630.77 265.082 1638.33 262.057 1647.4 262.057C1656.48 262.057 1664.04 264.944 1670.09 270.72C1676.42 276.22 1679.58 283.232 1679.58 291.757C1679.58 300.283 1676.42 307.433 1670.09 313.208C1664.04 318.708 1656.48 321.458 1647.4 321.458C1638.33 321.458 1630.77 318.57 1624.72 312.795C1618.94 306.745 1616.05 299.733 1616.05 291.757ZM1848.2 418.397C1842.42 412.347 1836.37 407.535 1830.05 403.96C1823.72 400.384 1817.26 398.597 1810.66 398.597C1801.58 398.597 1793.47 400.247 1786.32 403.547C1779.17 406.847 1772.98 411.247 1767.76 416.747C1762.81 422.247 1758.96 428.573 1756.21 435.723C1753.73 442.873 1752.5 450.298 1752.5 457.998C1752.5 465.698 1753.73 473.123 1756.21 480.274C1758.96 487.424 1762.81 493.749 1767.76 499.249C1772.98 504.749 1779.17 509.149 1786.32 512.449C1793.47 515.749 1801.58 517.399 1810.66 517.399C1818.36 517.399 1825.51 515.887 1832.11 512.862C1838.71 509.562 1844.35 504.887 1849.02 498.836L1882.02 534.312C1877.07 539.262 1871.3 543.525 1864.7 547.1C1858.37 550.675 1851.91 553.562 1845.31 555.762C1838.71 557.963 1832.38 559.475 1826.33 560.3C1820.28 561.4 1815.06 561.95 1810.66 561.95C1795.81 561.95 1781.78 559.475 1768.58 554.525C1755.38 549.575 1743.97 542.562 1734.35 533.487C1724.72 524.412 1717.02 513.549 1711.25 500.899C1705.74 487.974 1702.99 473.673 1702.99 457.998C1702.99 442.323 1705.74 428.16 1711.25 415.51C1717.02 402.585 1724.72 391.584 1734.35 382.509C1743.97 373.434 1755.38 366.421 1768.58 361.471C1781.78 356.521 1795.81 354.046 1810.66 354.046C1823.31 354.046 1835.96 356.521 1848.61 361.471C1861.54 366.146 1872.81 373.709 1882.44 384.159L1848.2 418.397ZM1904.47 245.144H1953.97V557H1904.47V245.144ZM2029.78 475.323C2031.43 490.174 2037.2 501.724 2047.1 509.974C2057 518.224 2068.97 522.349 2082.99 522.349C2095.37 522.349 2105.68 519.874 2113.93 514.924C2122.46 509.699 2129.88 503.236 2136.21 495.536L2171.68 522.349C2160.13 536.65 2147.21 546.825 2132.91 552.875C2118.61 558.925 2103.62 561.95 2087.94 561.95C2073.09 561.95 2059.07 559.475 2045.87 554.525C2032.67 549.575 2021.25 542.562 2011.63 533.487C2002 524.412 1994.3 513.549 1988.53 500.899C1983.03 487.974 1980.28 473.673 1980.28 457.998C1980.28 442.323 1983.03 428.16 1988.53 415.51C1994.3 402.585 2002 391.584 2011.63 382.509C2021.25 373.434 2032.67 366.421 2045.87 361.471C2059.07 356.521 2073.09 354.046 2087.94 354.046C2101.69 354.046 2114.21 356.521 2125.48 361.471C2137.03 366.146 2146.79 373.021 2154.77 382.097C2163.02 391.172 2169.34 402.447 2173.74 415.922C2178.42 429.123 2180.76 444.385 2180.76 461.711V475.323H2029.78ZM2131.26 438.198C2130.98 423.622 2126.44 412.21 2117.64 403.96C2108.84 395.434 2096.6 391.172 2080.93 391.172C2066.08 391.172 2054.25 395.434 2045.45 403.96C2036.93 412.485 2031.7 423.897 2029.78 438.198H2131.26Z" fill="black"/>
</svg>
