<svg width="256" height="256" viewBox="0 0 256 256" xmlns="http://www.w3.org/2000/svg" preserveAspectRatio="xMidYMid"><g><path d="M128 0c70.656 0 128 57.344 128 128s-57.344 128-128 128S0 198.656 0 128 57.344 0 128 0zm0 33.792c-52.224 0-94.208 41.984-94.208 94.208s41.984 94.208 94.208 94.208 94.208-41.984 94.208-94.208-41.984-94.208-94.208-94.208zm31.744 99.328c14.704 0 26.624 11.92 26.624 26.624s-11.92 26.624-26.624 26.624-26.624-11.92-26.624-26.624 11.92-26.624 26.624-26.624zm-63.488 0c14.704 0 26.624 11.92 26.624 26.624s-11.92 26.624-26.624 26.624S69.632 174.448 69.632 159.744s11.92-26.624 26.624-26.624zm63.488-63.488c14.704 0 26.624 11.92 26.624 26.624s-11.92 26.624-26.624 26.624-26.624-11.92-26.624-26.624 11.92-26.624 26.624-26.624zm-63.488 0c14.704 0 26.624 11.92 26.624 26.624s-11.92 26.624-26.624 26.624S69.632 110.96 69.632 96.256s11.92-26.624 26.624-26.624z" fill="#F22F46"/></g></svg>
